<?xml version="1.0" standalone="no"?>
<!DOCTYPE svg PUBLIC "-//W3C//DTD SVG 20010904//EN"
 "http://www.w3.org/TR/2001/REC-SVG-20010904/DTD/svg10.dtd">
<svg version="1.0" xmlns="http://www.w3.org/2000/svg"
 width="1000.000000pt" height="623.000000pt" viewBox="0 0 1000.000000 623.000000"
 preserveAspectRatio="xMidYMid meet">

<g transform="translate(0.000000,623.000000) scale(0.100000,-0.100000)"
fill="#000000" stroke="none">
<path d="M120 3115 l0 -2295 2295 0 2295 0 0 805 0 805 -30 0 -30 0 -2 -772
-3 -773 -2227 -3 -2228 -2 0 2235 0 2235 2228 -2 2227 -3 3 -772 2 -773 30 0
30 0 0 805 0 805 -2295 0 -2295 0 0 -2295z"/>
<path d="M2430 3637 c-32 -9 -50 -21 -65 -44 -20 -32 -21 -32 -101 -33 -107 0
-170 -20 -216 -67 -54 -55 -68 -97 -68 -202 l0 -90 -27 -3 -28 -3 -3 -127 -3
-127 28 -3 28 -3 6 -115 c5 -122 16 -155 62 -198 26 -25 90 -44 113 -35 10 4
14 24 14 69 l0 64 35 0 35 0 0 -58 c0 -32 5 -63 12 -70 12 -12 95 -16 122 -6
12 5 16 21 16 70 0 50 3 64 15 64 12 0 15 -13 15 -58 0 -32 5 -63 12 -70 12
-12 95 -16 122 -6 12 5 16 21 16 70 0 50 3 64 15 64 12 0 15 -13 15 -58 0 -32
5 -63 12 -70 12 -12 95 -16 122 -6 12 5 16 21 16 70 l0 64 35 0 35 0 0 -59 c0
-69 11 -83 60 -72 93 21 123 74 130 231 l5 115 28 3 27 3 0 130 0 129 -30 0
-30 0 0 94 c0 128 -27 186 -109 234 -41 24 -59 27 -152 30 -101 4 -107 6 -117
28 -6 12 -21 30 -34 38 -32 21 -115 28 -168 13z m148 -60 c15 -16 10 -17 -81
-17 -98 0 -115 8 -63 31 33 14 124 5 144 -14z m289 -88 c48 -23 80 -62 89
-107 6 -29 4 -31 -67 -65 -109 -51 -110 -51 -142 -17 -39 41 -85 48 -140 21
-61 -29 -167 -29 -223 0 -52 28 -103 20 -138 -21 -13 -17 -28 -30 -33 -30 -22
0 -183 85 -183 97 0 38 62 113 110 132 15 6 161 10 354 10 314 1 332 0 373
-20z m-681 -233 c15 -5 24 -18 29 -43 13 -70 52 -103 121 -103 28 0 44 8 70
34 30 30 34 40 34 85 l0 52 56 -3 56 -3 2 -52 c1 -42 7 -58 27 -79 70 -69 199
-19 199 78 0 20 13 29 88 61 49 20 92 37 95 37 4 0 7 -13 7 -30 0 -25 -5 -31
-40 -41 l-40 -12 0 -163 0 -164 28 -6 c36 -9 52 -23 52 -45 0 -18 -12 -19
-230 -19 l-230 0 0 30 0 30 85 0 c83 0 86 1 95 26 6 14 10 34 10 45 0 18 -9
19 -206 19 l-206 0 7 -37 c4 -21 9 -41 11 -45 3 -5 43 -8 90 -8 l84 0 0 -30 0
-30 -225 0 -225 0 0 25 c0 20 7 26 40 36 l40 12 -2 160 -3 160 -35 12 c-30 10
-35 16 -38 48 l-3 37 68 -34 c37 -18 78 -37 89 -40z m175 54 c6 0 21 -12 34
-26 35 -38 34 -87 -4 -125 -37 -37 -79 -38 -120 -3 -33 28 -42 75 -20 115 12
23 67 51 87 44 8 -3 18 -5 23 -5z m363 -19 c29 -25 38 -60 25 -98 -10 -32 -51
-63 -83 -63 -46 0 -96 51 -96 98 0 25 36 71 64 82 26 10 65 2 90 -19z m-656
-69 c9 -7 12 -44 10 -153 -3 -141 -4 -144 -25 -147 l-23 -3 0 155 c0 159 3
170 38 148z m902 -148 l0 -155 -27 3 -28 3 -3 144 c-3 150 0 160 41 161 15 0
17 -14 17 -156z m-990 -10 c0 -72 -3 -95 -12 -92 -9 3 -14 34 -16 96 -2 77 0
92 13 92 12 0 15 -16 15 -96z m1060 1 c0 -78 -3 -95 -15 -95 -12 0 -15 17 -15
95 0 78 3 95 15 95 12 0 15 -17 15 -95z m-366 -120 c-5 -13 -35 -15 -180 -15
-148 0 -174 2 -174 15 0 13 27 15 180 15 155 0 179 -2 174 -15z m287 -174 c-4
-55 -14 -84 -41 -111 -36 -36 -49 -26 -52 43 l-3 62 -80 0 -80 0 -3 -67 c-3
-64 -4 -68 -27 -68 -23 0 -24 4 -27 68 l-3 67 -60 0 -60 0 -3 -67 c-3 -64 -4
-68 -27 -68 -23 0 -24 4 -27 68 l-3 67 -60 0 -60 0 -3 -67 c-3 -64 -4 -68 -27
-68 -23 0 -24 4 -27 68 l-3 67 -80 0 -80 0 -3 -62 c-3 -69 -14 -78 -50 -40
-28 29 -42 70 -42 118 l0 39 467 -2 468 -3 -4 -44z"/>
<path d="M2286 3261 c-39 -43 14 -108 68 -83 29 13 38 43 22 74 -16 31 -65 36
-90 9z"/>
<path d="M2620 3261 c-15 -29 -12 -56 8 -74 50 -46 114 13 82 74 -7 13 -21 19
-45 19 -24 0 -38 -6 -45 -19z"/>
<path d="M3778 3479 c-21 -10 -45 -31 -55 -45 l-16 -26 -15 36 c-9 24 -21 36
-33 36 -18 0 -19 -14 -19 -365 l0 -365 40 0 40 0 0 296 0 297 44 43 c39 39 48
44 90 44 33 0 52 -6 66 -20 19 -19 20 -33 20 -340 l0 -320 40 0 40 0 0 321 c0
279 -2 326 -17 356 -31 67 -147 94 -225 52z"/>
<path d="M4317 3486 c-72 -27 -97 -66 -97 -154 0 -78 28 -121 163 -246 111
-104 137 -141 137 -199 0 -58 -27 -80 -102 -85 -57 -4 -68 -1 -92 20 -24 20
-29 33 -33 91 l-6 67 -33 0 -34 0 0 -72 c0 -130 47 -173 190 -173 127 0 175
34 187 133 11 96 -5 123 -158 272 -146 142 -147 143 -140 225 6 63 135 92 186
40 22 -21 25 -33 25 -90 l0 -65 40 0 40 0 0 63 c-1 80 -27 140 -72 163 -44 23
-152 28 -201 10z"/>
<path d="M5753 3476 c-18 -15 -35 -36 -38 -46 -9 -30 -22 -24 -35 15 -8 24
-18 35 -31 35 -18 0 -19 -12 -19 -365 l0 -365 40 0 40 0 0 278 c0 155 5 293
10 313 14 52 55 89 96 89 42 0 54 -21 54 -94 l0 -56 40 0 40 0 0 55 c0 102
-38 155 -118 163 -41 3 -52 0 -79 -22z"/>
<path d="M6179 3491 c-44 -14 -77 -41 -93 -76 -24 -49 -24 -551 0 -601 27 -57
75 -79 174 -79 98 0 139 17 170 68 19 30 20 52 20 312 0 260 -1 282 -20 312
-10 18 -34 40 -52 49 -37 19 -158 28 -199 15z m168 -85 l28 -24 0 -267 0 -267
-28 -24 c-23 -20 -39 -24 -88 -24 -50 0 -64 4 -84 25 l-25 24 0 266 0 266 25
24 c20 21 34 25 84 25 49 0 65 -4 88 -24z"/>
<path d="M7329 3491 c-47 -15 -77 -42 -93 -82 -13 -32 -16 -85 -16 -295 0
-273 4 -298 51 -340 69 -61 221 -59 290 4 43 40 51 105 47 377 -3 257 -9 279
-77 319 -37 21 -157 32 -202 17z m168 -85 l28 -24 0 -267 0 -267 -29 -25 c-26
-22 -36 -25 -94 -21 -104 7 -102 0 -102 310 0 164 4 267 11 279 14 27 44 38
106 38 41 1 58 -4 80 -23z"/>
<path d="M3260 3450 c0 -25 4 -30 25 -30 l25 0 0 -305 0 -305 -25 0 c-21 0
-25 -5 -25 -30 l0 -30 95 0 95 0 0 29 c0 25 -4 30 -27 33 l-28 3 0 300 0 300
28 3 c23 3 27 8 27 33 l0 29 -95 0 -95 0 0 -30z"/>
<path d="M4790 3115 l0 -365 40 0 40 0 0 109 0 108 79 6 c99 8 145 26 171 69
19 30 20 46 18 195 -3 156 -4 162 -28 189 -41 44 -78 54 -205 54 l-115 0 0
-365z m225 291 c46 -20 59 -68 53 -209 -6 -139 -14 -150 -123 -155 l-75 -4 0
191 0 191 55 0 c31 0 71 -6 90 -14z"/>
<path d="M5330 3115 l0 -365 35 0 35 0 0 365 0 365 -35 0 -35 0 0 -365z"/>
<path d="M6660 3115 l0 -365 125 0 c195 0 235 30 243 185 5 98 -11 152 -53
179 l-31 20 29 26 c51 45 59 185 16 256 -30 49 -80 64 -214 64 l-115 0 0 -365z
m248 272 c52 -52 37 -188 -24 -216 -14 -6 -52 -11 -84 -11 l-60 0 0 123 c0 68
3 127 8 131 4 5 36 6 71 3 51 -4 69 -10 89 -30z m-7 -297 c10 -6 26 -24 34
-40 18 -35 20 -148 4 -184 -17 -37 -69 -58 -137 -54 l-57 3 -3 143 -3 142 71
0 c39 0 80 -5 91 -10z"/>
<path d="M7800 3158 c0 -363 2 -377 70 -410 71 -36 161 -12 192 52 13 25 18
59 18 123 l0 88 -37 -3 -38 -3 -3 -85 c-3 -94 -17 -120 -62 -120 -59 0 -60 8
-60 328 l0 292 85 0 85 0 0 30 0 30 -125 0 -125 0 0 -322z"/>
</g>
</svg>
